# xmcd
#
# Track frame offsets:
#	150
#	18528
#	36605
#	51369
#	67364
#	90119
#	107900
#	125726
#	143731
#	165624
#	187524
#	207801
#
# Disc length: 3028 seconds
#
# Revision: 1
# Processed by: cddbd v1.5.1PL2 Copyright (c) Steve Scherf et al.
# Submitted via: audiograbber 1.83.01
#
DISCID=aa0bd20c
DTITLE=Ayo - Joyful
DYEAR=1900
DGENRE=
TTITLE0=Down on my knees
TTITLE1=Without you
TTITLE2=Letter by letter
TTITLE3=How many times ?
TTITLE4=And it's supposed to be love
TTITLE5=Watching you
TTITLE6=Only you
TTITLE7=Help is coming
TTITLE8=These days
TTITLE9=Life is real
TTITLE10=What is love ?
TTITLE11=Neva been
EXTD=
EXTT0=
EXTT1=
EXTT2=
EXTT3=
EXTT4=
EXTT5=
EXTT6=
EXTT7=
EXTT8=
EXTT9=
EXTT10=
EXTT11=
PLAYORDER=
